<svg width="96" height="96" viewBox="0 0 96 96" fill="none" xmlns="http://www.w3.org/2000/svg">
  <rect width="96" height="96" rx="20" fill="#1B74E4"/>
  <path d="M27 62.5C20.4 62.5 15 57.1 15 50.5C15 44.4 19.6 39.4 25.5 38.6C28.7 28.5 38.1 21 49.2 21C61.7 21 72.1 30.2 73.8 42.2C80.2 43.4 85 49 85 55.6C85 63.1 78.9 69.2 71.4 69.2H29.4C28.6 69.2 27.8 68.9 27.2 68.3C26.6 67.7 26.3 66.9 26.3 66.1C26.3 64.4 27.7 62.5 29.4 62.5H71.4C75.2 62.5 78.3 59.4 78.3 55.6C78.3 51.8 75.2 48.7 71.4 48.7H67.7L67.5 45.4C67 35.2 58.4 27.7 49.2 27.7C40.3 27.7 32.6 34 30.9 42.7L30.4 45.5H27.5C24.3 45.5 21.7 48.1 21.7 51.3C21.7 54.5 24.3 56.9 27 56.9H36.6V45.8H43.7V56.9H52.3V45.8H59.4V56.9H67.9V62.5H59.4V73H52.3V62.5H43.7V73H36.6V62.5H27Z" fill="white"/>
</svg>
